# xmcd
#
# Track frame offsets:
#  225
#  12407
#  27370
#  45582
#  59324
#  76501
#  91568
#  108013
#  124241
#  140958
#  155689
#  170275
#
# Disc length: 2447 seconds
#
# Revision: 0
# Processed by: cddbd v1.4PL0 Copyright (c) Steve Scherf et al.
# Submitted via: AltoMP3_Maker 3.0
#
DISCID=8e098c0c
DTITLE=Intenso - Conquistandote
DYEAR=1900
DGENRE=
TTITLE0=Solo Hay Dolor-CRLS
TTITLE1=Caminando Sobre Espinas-CRLS
TTITLE2=Un Loco-CRLS
TTITLE3=Que Ya Te Vas-CRLS
TTITLE4=Nunca Lo Olvidaras-CRLS
TTITLE5=Basta Ya-CRLS
TTITLE6=No Te Voy a Detener-CRLS
TTITLE7=Una Historia-CRLS
TTITLE8=Y Volo-CRLS
TTITLE9=Como Es Posible-CRLS
TTITLE10=Conquistandote-CRLS
TTITLE11=No Lo Mereces-CRLS
EXTD=
EXTT0=
EXTT1=
EXTT2=
EXTT3=
EXTT4=
EXTT5=
EXTT6=
EXTT7=
EXTT8=
EXTT9=
EXTT10=
EXTT11=
PLAYORDER=
